<?xml version="1.0" encoding="UTF-8" standalone="no"?>
<!DOCTYPE svg PUBLIC "-//W3C//DTD SVG 1.1//EN"
 "http://www.w3.org/Graphics/SVG/1.1/DTD/svg11.dtd">
<!-- Generated by graphviz version 2.40.1 (20161225.0304)
 -->
<!-- Title: G Pages: 1 -->
<svg width="870pt" height="908pt"
 viewBox="0.00 0.00 869.52 908.21" xmlns="http://www.w3.org/2000/svg" xmlns:xlink="http://www.w3.org/1999/xlink">
<g id="graph0" class="graph" transform="scale(1 1) rotate(0) translate(4 904.2146)">
<title>G</title>
<polygon fill="#ffffff" stroke="transparent" points="-4,4 -4,-904.2146 865.5157,-904.2146 865.5157,4 -4,4"/>
<!-- start -->
<g id="node1" class="node">
<title>start</title>
<polygon fill="none" stroke="#000000" points="470.5256,-900.2146 431.2883,-882.2146 470.5256,-864.2146 509.7629,-882.2146 470.5256,-900.2146"/>
<polyline fill="none" stroke="#000000" points="442.1953,-887.2182 442.1953,-877.211 "/>
<polyline fill="none" stroke="#000000" points="459.6185,-869.2182 481.4327,-869.2182 "/>
<polyline fill="none" stroke="#000000" points="498.8558,-877.211 498.8558,-887.2182 "/>
<polyline fill="none" stroke="#000000" points="481.4327,-895.211 459.6185,-895.211 "/>
<text text-anchor="middle" x="470.5256" y="-878.0146" font-family="Times,serif" font-size="14.00" fill="#000000">start</text>
</g>
<!-- MacLessgyBlabla -->
<g id="node2" class="node">
<title>MacLessgyBlabla</title>
<ellipse fill="none" stroke="#000000" cx="470.5256" cy="-810.2146" rx="80.5162" ry="18"/>
<text text-anchor="middle" x="470.5256" y="-806.0146" font-family="Times,serif" font-size="14.00" fill="#000000">MacLessgyBlabla</text>
</g>
<!-- start&#45;&gt;MacLessgyBlabla -->
<g id="edge1" class="edge">
<title>start&#45;&gt;MacLessgyBlabla</title>
<path fill="none" stroke="#000000" d="M470.5256,-864.046C470.5256,-856.3456 470.5256,-847.1889 470.5256,-838.6312"/>
<polygon fill="#000000" stroke="#000000" points="474.0257,-838.6278 470.5256,-828.6279 467.0257,-838.6279 474.0257,-838.6278"/>
</g>
<!-- ChoixJobAppearance -->
<g id="node3" class="node">
<title>ChoixJobAppearance</title>
<ellipse fill="none" stroke="#000000" cx="470.5256" cy="-738.2146" rx="94.3273" ry="18"/>
<text text-anchor="middle" x="470.5256" y="-734.0146" font-family="Times,serif" font-size="14.00" fill="#000000">ChoixJobAppearance</text>
</g>
<!-- MacLessgyBlabla&#45;&gt;ChoixJobAppearance -->
<g id="edge2" class="edge">
<title>MacLessgyBlabla&#45;&gt;ChoixJobAppearance</title>
<path fill="none" stroke="#000000" d="M470.5256,-792.046C470.5256,-784.3456 470.5256,-775.1889 470.5256,-766.6312"/>
<polygon fill="#000000" stroke="#000000" points="474.0257,-766.6278 470.5256,-756.6279 467.0257,-766.6279 474.0257,-766.6278"/>
</g>
<!-- Sport -->
<g id="node4" class="node">
<title>Sport</title>
<ellipse fill="none" stroke="#000000" cx="470.5256" cy="-666.2146" rx="31.9205" ry="18"/>
<text text-anchor="middle" x="470.5256" y="-662.0146" font-family="Times,serif" font-size="14.00" fill="#000000">Sport</text>
</g>
<!-- ChoixJobAppearance&#45;&gt;Sport -->
<g id="edge3" class="edge">
<title>ChoixJobAppearance&#45;&gt;Sport</title>
<path fill="none" stroke="#000000" d="M470.5256,-720.046C470.5256,-712.3456 470.5256,-703.1889 470.5256,-694.6312"/>
<polygon fill="#000000" stroke="#000000" points="474.0257,-694.6278 470.5256,-684.6279 467.0257,-694.6279 474.0257,-694.6278"/>
</g>
<!-- ChampionArrogant -->
<g id="node5" class="node">
<title>ChampionArrogant</title>
<ellipse fill="none" stroke="#000000" cx="241.5256" cy="-594.2146" rx="86.2599" ry="18"/>
<text text-anchor="middle" x="241.5256" y="-590.0146" font-family="Times,serif" font-size="14.00" fill="#000000">ChampionArrogant</text>
</g>
<!-- Sport&#45;&gt;ChampionArrogant -->
<g id="edge4" class="edge">
<title>Sport&#45;&gt;ChampionArrogant</title>
<path fill="none" stroke="#ff0000" d="M442.4457,-657.386C406.9511,-646.2261 344.9668,-626.7376 299.2041,-612.3493"/>
<polygon fill="#ff0000" stroke="#ff0000" points="299.9989,-608.9304 289.4095,-609.2698 297.8993,-615.6081 299.9989,-608.9304"/>
</g>
<!-- PalmaresExperiencesSimples -->
<g id="node6" class="node">
<title>PalmaresExperiencesSimples</title>
<ellipse fill="none" stroke="#000000" cx="470.5256" cy="-594.2146" rx="124.9713" ry="18"/>
<text text-anchor="middle" x="470.5256" y="-590.0146" font-family="Times,serif" font-size="14.00" fill="#000000">PalmaresExperiencesSimples</text>
</g>
<!-- Sport&#45;&gt;PalmaresExperiencesSimples -->
<g id="edge5" class="edge">
<title>Sport&#45;&gt;PalmaresExperiencesSimples</title>
<path fill="none" stroke="#00ff00" d="M470.5256,-648.046C470.5256,-640.3456 470.5256,-631.1889 470.5256,-622.6312"/>
<polygon fill="#00ff00" stroke="#00ff00" points="474.0257,-622.6278 470.5256,-612.6279 467.0257,-622.6279 474.0257,-622.6278"/>
</g>
<!-- LebasketCchouette -->
<g id="node7" class="node">
<title>LebasketCchouette</title>
<ellipse fill="none" stroke="#000000" cx="698.5256" cy="-594.2146" rx="85.0908" ry="18"/>
<text text-anchor="middle" x="698.5256" y="-590.0146" font-family="Times,serif" font-size="14.00" fill="#000000">LebasketCchouette</text>
</g>
<!-- Sport&#45;&gt;LebasketCchouette -->
<g id="edge6" class="edge">
<title>Sport&#45;&gt;LebasketCchouette</title>
<path fill="none" stroke="#ffa500" d="M498.4829,-657.386C533.8225,-646.2261 595.5361,-626.7376 641.0989,-612.3493"/>
<polygon fill="#ffa500" stroke="#ffa500" points="642.369,-615.6187 650.8508,-609.2698 640.261,-608.9436 642.369,-615.6187"/>
</g>
<!-- FollowerNeutre -->
<g id="node8" class="node">
<title>FollowerNeutre</title>
<ellipse fill="none" stroke="#000000" cx="241.5256" cy="-522.2146" rx="72.3477" ry="18"/>
<text text-anchor="middle" x="241.5256" y="-518.0146" font-family="Times,serif" font-size="14.00" fill="#000000">FollowerNeutre</text>
</g>
<!-- ChampionArrogant&#45;&gt;FollowerNeutre -->
<g id="edge7" class="edge">
<title>ChampionArrogant&#45;&gt;FollowerNeutre</title>
<path fill="none" stroke="#0000ff" d="M241.5256,-576.046C241.5256,-568.3456 241.5256,-559.1889 241.5256,-550.6312"/>
<polygon fill="#0000ff" stroke="#0000ff" points="245.0257,-550.6278 241.5256,-540.6279 238.0257,-550.6279 245.0257,-550.6278"/>
</g>
<!-- BigHeadMontée -->
<g id="node9" class="node">
<title>BigHeadMontée</title>
<ellipse fill="none" stroke="#000000" cx="75.5256" cy="-522.2146" rx="75.5512" ry="18"/>
<text text-anchor="middle" x="75.5256" y="-518.0146" font-family="Times,serif" font-size="14.00" fill="#000000">BigHeadMontée</text>
</g>
<!-- ChampionArrogant&#45;&gt;BigHeadMontée -->
<g id="edge8" class="edge">
<title>ChampionArrogant&#45;&gt;BigHeadMontée</title>
<path fill="none" stroke="#0000ff" d="M203.8576,-577.8767C179.3213,-567.2344 147.1608,-553.2853 121.1732,-542.0136"/>
<polygon fill="#0000ff" stroke="#0000ff" points="122.4706,-538.7613 111.9037,-537.993 119.6852,-545.1833 122.4706,-538.7613"/>
</g>
<!-- PremierPost -->
<g id="node12" class="node">
<title>PremierPost</title>
<ellipse fill="none" stroke="#000000" cx="591.5256" cy="-522.2146" rx="58.4803" ry="18"/>
<text text-anchor="middle" x="591.5256" y="-518.0146" font-family="Times,serif" font-size="14.00" fill="#000000">PremierPost</text>
</g>
<!-- ChampionArrogant&#45;&gt;PremierPost -->
<g id="edge11" class="edge">
<title>ChampionArrogant&#45;&gt;PremierPost</title>
<path fill="none" stroke="#000000" d="M305.5917,-582.0506C387.4122,-566.5069 519.1629,-541.4448 524.5256,-540.2146 528.9371,-539.2026 533.4971,-538.0998 538.067,-536.9548"/>
<polygon fill="#000000" stroke="#000000" points="539.2159,-540.2735 548.0332,-534.3993 537.4773,-533.4928 539.2159,-540.2735"/>
</g>
<!-- FollowerMontéeBcp -->
<g id="node10" class="node">
<title>FollowerMontéeBcp</title>
<ellipse fill="none" stroke="#000000" cx="423.5256" cy="-522.2146" rx="91.7418" ry="18"/>
<text text-anchor="middle" x="423.5256" y="-518.0146" font-family="Times,serif" font-size="14.00" fill="#000000">FollowerMontéeBcp</text>
</g>
<!-- PalmaresExperiencesSimples&#45;&gt;FollowerMontéeBcp -->
<g id="edge9" class="edge">
<title>PalmaresExperiencesSimples&#45;&gt;FollowerMontéeBcp</title>
<path fill="none" stroke="#0000ff" d="M458.6655,-576.046C453.225,-567.7116 446.6709,-557.6713 440.7042,-548.5308"/>
<polygon fill="#0000ff" stroke="#0000ff" points="443.6162,-546.5886 435.2191,-540.128 437.7545,-550.415 443.6162,-546.5886"/>
</g>
<!-- PalmaresExperiencesSimples&#45;&gt;PremierPost -->
<g id="edge12" class="edge">
<title>PalmaresExperiencesSimples&#45;&gt;PremierPost</title>
<path fill="none" stroke="#000000" d="M500.1255,-576.6014C516.8077,-566.6748 537.7745,-554.1987 555.4174,-543.7005"/>
<polygon fill="#000000" stroke="#000000" points="557.4962,-546.5363 564.3001,-538.4149 553.9167,-540.5207 557.4962,-546.5363"/>
</g>
<!-- FollowerMontéeMdm -->
<g id="node11" class="node">
<title>FollowerMontéeMdm</title>
<ellipse fill="none" stroke="#000000" cx="764.5256" cy="-522.2146" rx="96.9802" ry="18"/>
<text text-anchor="middle" x="764.5256" y="-518.0146" font-family="Times,serif" font-size="14.00" fill="#000000">FollowerMontéeMdm</text>
</g>
<!-- LebasketCchouette&#45;&gt;FollowerMontéeMdm -->
<g id="edge10" class="edge">
<title>LebasketCchouette&#45;&gt;FollowerMontéeMdm</title>
<path fill="none" stroke="#0000ff" d="M714.8402,-576.4168C722.8523,-567.6763 732.6452,-556.9932 741.4123,-547.429"/>
<polygon fill="#0000ff" stroke="#0000ff" points="743.9927,-549.7938 748.1699,-540.0571 738.8326,-545.0637 743.9927,-549.7938"/>
</g>
<!-- LebasketCchouette&#45;&gt;PremierPost -->
<g id="edge13" class="edge">
<title>LebasketCchouette&#45;&gt;PremierPost</title>
<path fill="none" stroke="#000000" d="M672.8964,-576.9688C658.29,-567.1402 639.8382,-554.724 624.1996,-544.2008"/>
<polygon fill="#000000" stroke="#000000" points="626.0937,-541.2568 615.8432,-538.5778 622.1858,-547.0644 626.0937,-541.2568"/>
</g>
<!-- Choix1 -->
<g id="node13" class="node">
<title>Choix1</title>
<ellipse fill="none" stroke="#000000" cx="506.5256" cy="-450.2146" rx="39.4486" ry="18"/>
<text text-anchor="middle" x="506.5256" y="-446.0146" font-family="Times,serif" font-size="14.00" fill="#000000">Choix1</text>
</g>
<!-- PremierPost&#45;&gt;Choix1 -->
<g id="edge14" class="edge">
<title>PremierPost&#45;&gt;Choix1</title>
<path fill="none" stroke="#000000" d="M571.3818,-505.1516C559.9446,-495.4637 545.4878,-483.2179 533.1273,-472.7478"/>
<polygon fill="#000000" stroke="#000000" points="535.2529,-469.9614 525.3602,-466.1686 530.7284,-475.3028 535.2529,-469.9614"/>
</g>
<!-- Choix2 -->
<g id="node14" class="node">
<title>Choix2</title>
<ellipse fill="none" stroke="#000000" cx="609.5256" cy="-378.2146" rx="39.4486" ry="18"/>
<text text-anchor="middle" x="609.5256" y="-374.0146" font-family="Times,serif" font-size="14.00" fill="#000000">Choix2</text>
</g>
<!-- PremierPost&#45;&gt;Choix2 -->
<g id="edge15" class="edge">
<title>PremierPost&#45;&gt;Choix2</title>
<path fill="none" stroke="#000000" d="M593.8053,-503.9769C596.8755,-479.4156 602.3697,-435.462 605.9813,-406.5687"/>
<polygon fill="#000000" stroke="#000000" points="609.4969,-406.6611 607.2644,-396.3042 602.551,-405.7928 609.4969,-406.6611"/>
</g>
<!-- Choix3 -->
<g id="node15" class="node">
<title>Choix3</title>
<ellipse fill="none" stroke="#000000" cx="658.5256" cy="-450.2146" rx="39.4486" ry="18"/>
<text text-anchor="middle" x="658.5256" y="-446.0146" font-family="Times,serif" font-size="14.00" fill="#000000">Choix3</text>
</g>
<!-- PremierPost&#45;&gt;Choix3 -->
<g id="edge16" class="edge">
<title>PremierPost&#45;&gt;Choix3</title>
<path fill="none" stroke="#000000" d="M607.7444,-504.7854C616.1787,-495.7217 626.6255,-484.4953 635.8468,-474.5859"/>
<polygon fill="#000000" stroke="#000000" points="638.6674,-476.6925 642.9175,-466.9875 633.5429,-471.9239 638.6674,-476.6925"/>
</g>
<!-- BigHeadMontée1 -->
<g id="node16" class="node">
<title>BigHeadMontée1</title>
<ellipse fill="none" stroke="#000000" cx="471.5256" cy="-378.2146" rx="80.2084" ry="18"/>
<text text-anchor="middle" x="471.5256" y="-374.0146" font-family="Times,serif" font-size="14.00" fill="#000000">BigHeadMontée1</text>
</g>
<!-- Choix1&#45;&gt;BigHeadMontée1 -->
<g id="edge17" class="edge">
<title>Choix1&#45;&gt;BigHeadMontée1</title>
<path fill="none" stroke="#0000ff" d="M497.8739,-432.4168C493.9075,-424.2574 489.1181,-414.405 484.7166,-405.3504"/>
<polygon fill="#0000ff" stroke="#0000ff" points="487.8406,-403.7712 480.3209,-396.3077 481.545,-406.8316 487.8406,-403.7712"/>
</g>
<!-- MacLessgy3 -->
<g id="node19" class="node">
<title>MacLessgy3</title>
<ellipse fill="none" stroke="#000000" cx="610.5256" cy="-306.2146" rx="60.2537" ry="18"/>
<text text-anchor="middle" x="610.5256" y="-302.0146" font-family="Times,serif" font-size="14.00" fill="#000000">MacLessgy3</text>
</g>
<!-- Choix2&#45;&gt;MacLessgy3 -->
<g id="edge20" class="edge">
<title>Choix2&#45;&gt;MacLessgy3</title>
<path fill="none" stroke="#0000ff" d="M609.7779,-360.046C609.8849,-352.3456 610.0121,-343.1889 610.1309,-334.6312"/>
<polygon fill="#0000ff" stroke="#0000ff" points="613.6305,-334.6755 610.2698,-324.6279 606.6312,-334.5783 613.6305,-334.6755"/>
</g>
<!-- MacLessgy2 -->
<g id="node17" class="node">
<title>MacLessgy2</title>
<ellipse fill="none" stroke="#000000" cx="471.5256" cy="-306.2146" rx="60.2537" ry="18"/>
<text text-anchor="middle" x="471.5256" y="-302.0146" font-family="Times,serif" font-size="14.00" fill="#000000">MacLessgy2</text>
</g>
<!-- BigHeadMontée1&#45;&gt;MacLessgy2 -->
<g id="edge18" class="edge">
<title>BigHeadMontée1&#45;&gt;MacLessgy2</title>
<path fill="none" stroke="#000000" d="M471.5256,-360.046C471.5256,-352.3456 471.5256,-343.1889 471.5256,-334.6312"/>
<polygon fill="#000000" stroke="#000000" points="475.0257,-334.6278 471.5256,-324.6279 468.0257,-334.6279 475.0257,-334.6278"/>
</g>
<!-- BigHead -->
<g id="node18" class="node">
<title>BigHead</title>
<ellipse fill="none" stroke="#000000" cx="481.5256" cy="-234.2146" rx="45.2247" ry="18"/>
<text text-anchor="middle" x="481.5256" y="-230.0146" font-family="Times,serif" font-size="14.00" fill="#000000">BigHead</text>
</g>
<!-- MacLessgy2&#45;&gt;BigHead -->
<g id="edge19" class="edge">
<title>MacLessgy2&#45;&gt;BigHead</title>
<path fill="none" stroke="#a020f0" d="M474.049,-288.046C475.1185,-280.3456 476.3903,-271.1889 477.5788,-262.6312"/>
<polygon fill="#a020f0" stroke="#a020f0" points="481.0591,-263.0143 478.9682,-252.6279 474.1257,-262.0513 481.0591,-263.0143"/>
</g>
<!-- PostExcuses -->
<g id="node21" class="node">
<title>PostExcuses</title>
<ellipse fill="none" stroke="#000000" cx="540.5256" cy="-162.2146" rx="59.1276" ry="18"/>
<text text-anchor="middle" x="540.5256" y="-158.0146" font-family="Times,serif" font-size="14.00" fill="#000000">PostExcuses</text>
</g>
<!-- BigHead&#45;&gt;PostExcuses -->
<g id="edge22" class="edge">
<title>BigHead&#45;&gt;PostExcuses</title>
<path fill="none" stroke="#000000" d="M495.8078,-216.7854C503.0016,-208.0065 511.858,-197.1987 519.7861,-187.5239"/>
<polygon fill="#000000" stroke="#000000" points="522.5393,-189.686 526.1704,-179.7328 517.1249,-185.2493 522.5393,-189.686"/>
</g>
<!-- TreePlanter -->
<g id="node20" class="node">
<title>TreePlanter</title>
<ellipse fill="none" stroke="#000000" cx="605.5256" cy="-234.2146" rx="56.1531" ry="18"/>
<text text-anchor="middle" x="605.5256" y="-230.0146" font-family="Times,serif" font-size="14.00" fill="#000000">TreePlanter</text>
</g>
<!-- MacLessgy3&#45;&gt;TreePlanter -->
<g id="edge21" class="edge">
<title>MacLessgy3&#45;&gt;TreePlanter</title>
<path fill="none" stroke="#a020f0" d="M609.2639,-288.046C608.7291,-280.3456 608.0932,-271.1889 607.499,-262.6312"/>
<polygon fill="#a020f0" stroke="#a020f0" points="610.9887,-262.3613 606.8043,-252.6279 604.0056,-262.8463 610.9887,-262.3613"/>
</g>
<!-- TreePlanter&#45;&gt;PostExcuses -->
<g id="edge23" class="edge">
<title>TreePlanter&#45;&gt;PostExcuses</title>
<path fill="none" stroke="#000000" d="M589.7909,-216.7854C581.7863,-207.9187 571.9132,-196.9824 563.1125,-187.234"/>
<polygon fill="#000000" stroke="#000000" points="565.6397,-184.8102 556.3407,-179.7328 560.4438,-189.5009 565.6397,-184.8102"/>
</g>
<!-- Discussion3 -->
<g id="node22" class="node">
<title>Discussion3</title>
<ellipse fill="none" stroke="#000000" cx="540.5256" cy="-90.2146" rx="58.4861" ry="18"/>
<text text-anchor="middle" x="540.5256" y="-86.0146" font-family="Times,serif" font-size="14.00" fill="#000000">Discussion3</text>
</g>
<!-- PostExcuses&#45;&gt;Discussion3 -->
<g id="edge24" class="edge">
<title>PostExcuses&#45;&gt;Discussion3</title>
<path fill="none" stroke="#000000" d="M540.5256,-144.046C540.5256,-136.3456 540.5256,-127.1889 540.5256,-118.6312"/>
<polygon fill="#000000" stroke="#000000" points="544.0257,-118.6278 540.5256,-108.6279 537.0257,-118.6279 544.0257,-118.6278"/>
</g>
<!-- end -->
<g id="node23" class="node">
<title>end</title>
<polygon fill="none" stroke="#000000" points="558.7408,-36.3225 522.3103,-36.3225 522.3103,.1079 558.7408,.1079 558.7408,-36.3225"/>
<polyline fill="none" stroke="#000000" points="534.3103,-36.3225 522.3103,-24.3225 "/>
<polyline fill="none" stroke="#000000" points="522.3103,-11.8921 534.3103,.1079 "/>
<polyline fill="none" stroke="#000000" points="546.7408,.1079 558.7408,-11.8921 "/>
<polyline fill="none" stroke="#000000" points="558.7408,-24.3225 546.7408,-36.3225 "/>
<text text-anchor="middle" x="540.5256" y="-13.9073" font-family="Times,serif" font-size="14.00" fill="#000000">end</text>
</g>
<!-- Discussion3&#45;&gt;end -->
<g id="edge25" class="edge">
<title>Discussion3&#45;&gt;end</title>
<path fill="none" stroke="#000000" d="M540.5256,-72.0189C540.5256,-64.2477 540.5256,-54.9956 540.5256,-46.3686"/>
<polygon fill="#000000" stroke="#000000" points="544.0257,-46.2972 540.5256,-36.2972 537.0257,-46.2972 544.0257,-46.2972"/>
</g>
</g>
</svg>
